# Blender v2.76 (sub 0) OBJ File: ''
# www.blender.org
mtllib Seven6.mtl
o Seven6
v -0.742245 2.443254 -0.842445
v -1.088983 3.368221 -0.756176
v 6.645181 0.846209 0.380782
v 5.934299 0.152833 0.357679
v -6.696224 0.708915 1.683043
v -6.876824 -0.337500 1.577033
v -6.453965 -4.348549 0.246053
v -6.039999 -5.209650 -0.225995
v -1.732162 5.048266 0.254585
v -2.355941 5.691748 0.978886
v 0.382413 7.666040 1.155783
v -0.505170 7.725215 0.972557
v 0.728258 -4.504342 -1.977784
v 1.037612 -5.022053 -1.608094
v 5.881500 -5.581676 0.781627
v 6.479095 -4.976428 0.324771
v 2.073729 6.930262 1.395068
v 1.249796 7.396976 1.298875
v 1.033052 3.970594 0.031349
v 1.976741 4.415990 -0.281351
v 2.152031 -5.926452 -0.507257
v 2.908999 -6.187417 -0.052061
v 5.125849 2.889371 0.456510
v 4.656915 3.792205 0.974782
v 1.096251 -7.079865 0.214550
v 1.561838 -6.415586 0.615903
v -1.375402 4.249583 -0.380067
v -7.001566 4.818995 -0.894996
v -6.879429 4.099538 -1.199195
v -5.499922 -5.972579 -0.707909
v -1.386190 7.578953 0.786250
v -1.275966 -7.988122 -0.989293
v -0.356466 -7.923890 -0.491121
v -5.445342 2.990810 -0.902983
v -4.572538 2.702530 -0.516508
v 0.613020 -3.979776 -2.064012
v 6.926683 -4.248859 -0.142804
v 4.133094 4.682046 1.312905
v 3.527456 5.529875 1.448828
v -4.838877 -6.615245 -1.173304
v 0.086331 3.505912 0.282643
v -6.404762 5.971106 0.207636
v -6.832797 5.431015 -0.383905
v 0.715221 -3.459739 -1.915902
v 6.348223 4.612384 -0.696430
v 6.919944 4.046481 -0.536037
v -5.208062 5.078251 -0.058087
v -5.525379 4.513949 0.404830
v -6.414612 1.736231 1.682498
v -0.325415 1.492328 -0.710962
v -6.311251 3.428638 -1.213910
v 7.196864 -3.432554 -0.536439
v 2.837379 6.294394 1.452008
v 1.718199 -3.690126 1.074947
v 1.408028 -2.567604 0.608915
v 7.346250 2.484536 -0.054337
v 7.133342 1.637328 0.213930
v 4.150467 -0.959616 -0.317605
v 3.223423 -1.450612 -0.803816
v 1.823611 -5.636519 1.021222
v 1.872097 -4.732244 1.237772
v -6.741522 -3.410663 0.683692
v 2.919853 4.787994 -0.572183
v 3.855778 5.033868 -0.771488
v 1.654185 -2.397860 -1.622821
v 1.076449 -2.921125 -1.780095
v 1.519896 -5.511964 -1.066451
v -2.283727 7.471543 -0.003896
v -2.976229 7.078947 -0.505799
v 6.471053 0.177090 -0.980892
v 6.029671 1.084012 -0.635921
v -4.066788 -7.125242 -1.562738
v -3.195508 -7.520327 -1.722106
v 7.268163 3.314737 -0.322440
v -5.897759 3.674790 1.165178
v -6.040995 2.729423 1.581004
v -3.715991 2.491575 -0.168943
v 1.009467 -1.472319 0.133914
v 0.573396 -0.450875 -0.204394
v 5.185271 -6.020775 1.029558
v -5.636725 6.409032 0.780397
v 5.610859 4.970224 -0.808670
v 2.374820 -1.923401 -1.269695
v -4.437909 6.130964 -0.878556
v -2.247577 -7.822919 -1.497861
v 7.271479 -2.557803 -0.839740
v 7.149433 -1.652142 -1.045614
v -3.406083 6.152611 1.373349
v -6.948546 -1.385560 1.367348
v -6.905095 -2.416415 1.064192
v -1.827389 2.732878 0.355273
v -0.867508 3.075848 0.402494
v 0.122926 0.527380 -0.473149
v 3.696827 -6.295684 0.419306
v 4.764289 5.106214 -0.846408
v 6.863260 -0.736386 -1.112318
v -4.569749 6.500188 1.287231
v 0.447425 -7.602850 -0.125683
v -2.783423 2.525228 0.149030
v 5.076455 -0.439892 0.111353
v 4.451244 -6.255863 0.879498
v 5.577209 1.986559 -0.124754
l 23 24
l 41 19
l 54 55
l 96 70
l 77 99
l 3 4
l 37 52
l 80 15
l 89 90
l 50 1
l 72 73
l 95 82
l 33 98
l 39 53
l 13 14
l 92 41
l 27 9
l 67 21
l 100 58
l 63 64
l 5 6
l 42 43
l 26 60
l 43 28
l 94 101
l 53 17
l 84 47
l 31 68
l 40 72
l 17 18
l 66 44
l 32 33
l 86 87
l 79 93
l 15 16
l 16 37
l 49 5
l 29 51
l 25 26
l 45 46
l 60 61
l 65 66
l 48 75
l 34 35
l 74 56
l 22 94
l 98 25
l 7 8
l 71 102
l 52 86
l 14 67
l 61 54
l 85 32
l 57 3
l 6 89
l 19 20
l 2 27
l 10 88
l 24 38
l 101 80
l 9 10
l 88 97
l 18 11
l 76 49
l 81 42
l 90 62
l 8 30
l 68 69
l 83 65
l 91 92
l 47 48
l 58 59
l 62 7
l 59 83
l 21 22
l 44 36
l 93 50
l 28 29
l 12 31
l 36 13
l 73 85
l 99 91
l 11 12
l 78 79
l 69 84
l 46 74
l 4 100
l 56 57
l 1 2
l 38 39
l 75 76
l 51 34
l 70 71
l 55 78
l 30 40
l 87 96
l 64 95
l 20 63
l 102 23
l 35 77
l 82 45
l 97 81
o Cube
v 1.000000 -1.000000 -1.000000
v 1.000000 -1.000000 1.000000
v -1.000000 -1.000000 1.000000
v -1.000000 -1.000000 -1.000000
v 1.000000 1.000000 -0.999999
v 0.999999 1.000000 1.000001
v -1.000000 1.000000 1.000000
v -1.000000 1.000000 -1.000000
vn 0.000000 -1.000000 0.000000
vn 0.000000 1.000000 0.000000
vn 1.000000 0.000000 0.000000
vn -0.000000 -0.000000 1.000000
vn -1.000000 -0.000000 -0.000000
vn 0.000000 0.000000 -1.000000
usemtl Material
s off
f 103//1 104//1 105//1 106//1
f 107//2 110//2 109//2 108//2
f 103//3 107//3 108//3 104//3
f 104//4 108//4 109//4 105//4
f 105//5 109//5 110//5 106//5
f 107//6 103//6 106//6 110//6
