# Blender v2.76 (sub 0) OBJ File: ''
# www.blender.org
mtllib 6_2_variant1.mtl
o knotplot.000_knotplot.007
v 23.732264 -0.865304 2.150381
v 24.801468 -1.629100 1.910792
v 21.508541 0.752612 2.247791
v 22.633186 -0.057152 2.264295
v 18.065418 2.782121 1.454138
v 16.927864 3.216828 0.984973
v 15.810617 3.496620 0.449651
v 14.720292 3.613958 -0.123665
v 19.214710 2.208558 1.832758
v 20.365856 1.521021 2.101673
v 13.661119 3.569071 -0.704932
v 12.634639 3.369104 -1.264241
v 11.639596 3.027364 -1.773651
v 14.993570 -4.493745 -2.213360
v 14.015136 -4.512349 -1.571815
v 13.033596 -4.365674 -0.927910
v 17.931316 -3.534356 -3.829440
v 16.950266 -3.990918 -3.369333
v 15.971401 -4.316025 -2.822102
v 19.904833 -2.307483 -4.407040
v 18.915678 -2.965666 -4.180926
v 22.925320 -0.083747 -4.241883
v 21.906485 -0.833112 -4.441476
v 20.900841 -1.586282 -4.496075
v 12.045443 -4.054720 -0.312252
v 23.961636 0.622654 -3.901196
v 25.020073 1.247046 -3.428580
v 7.941861 -1.494087 1.334955
v 8.997976 -2.277393 1.089359
v -18.149429 -13.322223 -5.923561
v -18.551895 -13.742231 -4.909182
v -19.321777 -14.123995 -1.577949
v -19.425869 -13.946650 -0.446966
v 6.476271 10.644098 -0.591021
v 8.576231 10.446529 -1.186161
v -19.452854 -13.617565 0.657062
v -4.387578 2.408205 -4.136354
v -5.447269 1.893392 -5.039129
v 5.761136 0.132088 1.413805
v 6.862576 -0.677174 1.445336
v -10.330477 -2.598072 -8.794181
v -11.222685 -3.743952 -9.254719
v -0.697577 10.249722 1.882281
v 0.939107 10.534121 1.270169
v -19.140577 -14.147934 -2.713843
v -8.820924 6.031210 5.099994
v -7.650060 7.005857 4.633276
v 2.672621 10.692864 0.648213
v 2.359829 2.142738 0.476450
v 1.211286 2.578478 -0.091649
v -2.245512 9.839508 2.478574
v -12.086567 -4.916431 -9.581539
v 10.031898 -2.987368 0.720600
v -13.706156 0.071102 6.765297
v -12.851999 1.366424 6.545623
v 0.065233 2.865976 -0.765540
v -1.072577 2.995748 -1.527543
v -8.461935 -0.486302 -7.528193
v -9.410263 -1.503936 -8.213324
v -5.097598 8.650970 3.607688
v -3.710684 9.305328 3.054757
v -17.637527 -7.698553 6.197436
v -17.123234 -6.478772 6.556837
v -11.938192 2.623303 6.260834
v -17.147350 -12.088057 -7.681519
v -17.679729 -12.767557 -6.854040
v 28.357811 2.353615 -1.380555
v 31.727150 2.227627 1.234440
v -13.724455 -7.246068 -9.795629
v -14.493786 -8.360726 -9.672074
v -19.280043 -12.523787 2.703556
v -19.084347 -11.774768 3.611109
v 3.504854 1.574001 0.923823
v -10.962996 3.828218 5.919867
v -9.924555 4.968246 5.530674
v 27.217926 2.127125 -2.148505
v 32.712502 1.930964 2.165873
v -12.921115 -6.091269 -9.764225
v -15.914924 -10.400257 -8.963509
v -16.557320 -11.294880 -8.389296
v -15.225420 -9.417416 -9.393502
v 36.862221 -1.280101 5.230244
v 4.640429 0.894171 1.238853
v -15.924515 -3.903413 6.937526
v -15.241379 -2.578409 6.970831
v -18.883274 -14.019476 -3.831867
v -18.093174 -8.852704 5.721170
v -2.196897 2.962949 -2.357815
v 36.229553 -0.383917 4.924865
v 26.104750 1.755910 -2.838199
v -16.551905 -5.208616 6.801867
v -19.403666 -13.141031 1.713468
v 33.630745 1.516710 3.058083
v 10.829601 10.142420 -1.747898
v -6.409769 7.882048 4.134753
v -18.819345 -10.904802 4.422793
v 13.247465 9.739160 -2.263204
v 34.530392 0.996720 3.839641
v -14.502201 -1.248649 6.910285
v -7.485262 0.431848 -6.757105
v 11.046385 -3.589027 0.246002
v 4.513755 10.728146 0.024433
v -18.487989 -9.926260 5.128436
v -3.303155 2.766431 -3.234915
v 15.828780 9.243649 -2.720614
v -6.480219 1.230505 -5.920224
v 1.232173 -3.047085 0.017646
v 0.274819 -3.198899 0.894346
v -16.997261 4.204959 -3.123864
v -16.480215 2.875534 -3.380749
v -0.670739 -3.225317 1.851080
v 2.195567 -2.774512 -0.763344
v -14.613251 10.682828 11.276747
v -15.243910 11.398046 10.588565
v -8.206084 1.764079 10.782686
v -8.951520 2.754991 11.433301
v -15.221467 0.158018 -3.616216
v -14.474701 -1.197663 -3.610768
v -9.688717 3.787519 11.950546
v -10.419511 4.845014 12.322914
v -7.449672 0.830154 10.012922
v 0.967350 -11.246627 -0.495699
v 3.205466 -11.464773 -0.088420
v -7.978700 -8.259125 -2.383406
v -6.481217 -9.113306 -2.044192
v -17.335770 12.958483 6.849134
v -17.717133 12.978024 5.768797
v 8.794149 1.361011 -2.777906
v 7.868629 0.680246 -2.884779
v -18.527004 11.511899 1.520952
v -18.538254 10.783320 0.576986
v -11.705480 -5.055418 -3.206675
v -10.581611 -6.216830 -2.969907
v 6.942533 -0.014297 -2.861647
v 6.010499 -0.693638 -2.704459
v -12.573514 7.986059 12.502522
v -13.271898 8.959424 12.244158
v -18.437843 12.102959 2.530275
v -1.599292 -3.124625 2.870090
v -5.890534 -0.812321 8.184193
v -6.678981 -0.032815 9.140585
v -5.081100 -1.497337 7.163780
v -15.888914 1.521174 -3.542372
v -2.506661 -2.897620 3.931926
v -3.390032 -2.547249 5.015879
v -4.248110 -2.078326 6.100443
v -18.471518 9.927668 -0.287188
v -18.327362 8.957022 -1.060143
v -18.030464 12.840921 4.674354
v -18.271694 12.548026 3.587849
v -13.953728 9.864361 11.832632
v -18.106779 7.884758 -1.733664
v -17.810925 6.725222 -2.302807
v -15.838639 11.994940 9.783113
v -12.723433 -3.820880 -3.397483
v 8.126538 -11.590344 0.712106
v 10.806608 -11.527151 1.100319
v -4.842398 -9.842605 -1.680696
v -3.056528 -10.441317 -1.297797
v -17.440853 5.493455 -2.765810
v -11.144578 5.909733 12.541924
v -11.863264 6.963104 12.602377
v 9.726068 1.998174 -2.548644
v -9.342513 -7.289518 -2.693627
v 5.592381 -11.574532 0.315482
v -16.390194 12.460545 8.877998
v -16.891462 12.784334 7.892924
v -13.644034 -2.529464 -3.534927
v 10.672089 2.562599 -2.208583
v -1.120268 -10.908165 -0.900843
v 3.159309 -2.389162 -1.435336
v 4.118435 -1.902749 -1.987661
v 5.069372 -1.330985 -2.412398
v 13.629554 -11.397614 1.482648
v 18.551743 8.661504 -3.111814
v 35.417942 0.369277 4.464428
v 25.971203 -10.047865 3.142467
v 22.808449 -10.583445 2.681230
v 19.657749 -10.948801 2.260182
v 16.586403 -11.207861 1.865648
v 29.018070 -9.287332 3.641984
v 37.181610 -3.469038 5.395824
v 37.211166 -2.317212 5.386491
v 24.190388 7.252269 -3.685160
v 21.366199 7.996737 -3.432939
v 29.512653 2.440996 -0.553738
v 30.651283 2.397982 0.320247
v 35.647964 -5.938908 4.998586
v 36.687073 -4.692166 5.263268
v 31.759031 -8.304566 4.150221
v 34.004520 -7.162596 4.617813
v 34.511173 2.571298 -4.156662
v 27.842300 -3.301436 0.560561
v 35.366135 -0.356404 -3.889622
v 35.494713 0.570604 -4.039615
v 35.233475 1.555380 -4.124423
v 34.285431 -1.946838 -3.348286
v 34.934353 -1.202094 -3.662101
v 31.690729 -3.429653 -1.902843
v 32.615601 -3.072639 -2.459431
v 33.493549 -2.574704 -2.945650
v 28.817795 -3.574094 -0.036131
v 29.783941 -3.685984 -0.664492
v 30.742804 -3.636490 -1.296090
v 33.288795 3.590660 -4.146042
v 25.840330 -2.309687 1.555394
v 26.852020 -2.875005 1.098886
v 29.415735 5.539652 -4.008562
v 31.572197 4.587398 -4.097114
v 26.915012 6.431348 -3.874182
l 46 47
l 140 141
l 159 170
l 123 165
l 100 58
l 48 102
l 127 149
l 163 128
l 167 126
l 59 41
l 39 40
l 25 101
l 144 145
l 118 168
l 43 44
l 89 176
l 3 10
l 10 9
l 77 68
l 183 182
l 148 152
l 56 57
l 174 157
l 71 72
l 103 87
l 149 150
l 51 43
l 151 113
l 154 166
l 80 65
l 145 146
l 156 157
l 5 6
l 187 186
l 143 117
l 79 80
l 184 185
l 20 21
l 155 132
l 50 56
l 183 82
l 97 105
l 170 122
l 177 178
l 28 29
l 1 2
l 40 28
l 16 25
l 91 84
l 47 95
l 86 45
l 134 135
l 68 187
l 150 138
l 32 33
l 92 71
l 39 83
l 139 144
l 81 79
l 12 13
l 126 127
l 74 75
l 60 61
l 63 91
l 116 119
l 109 110
l 130 131
l 26 22
l 129 134
l 31 86
l 96 103
l 125 158
l 121 115
l 23 24
l 161 162
l 34 35
l 67 76
l 98 93
l 133 164
l 82 89
l 44 48
l 137 151
l 110 143
l 13 169
l 36 92
l 153 160
l 57 88
l 106 100
l 115 116
l 165 156
l 35 94
l 113 114
l 76 90
l 41 42
l 171 112
l 64 74
l 45 32
l 131 147
l 180 174
l 11 12
l 54 55
l 108 111
l 117 118
l 78 69
l 66 30
l 88 104
l 114 154
l 22 23
l 15 16
l 146 142
l 37 38
l 147 148
l 182 189
l 122 123
l 141 121
l 72 96
l 75 46
l 172 173
l 21 17
l 33 36
l 29 53
l 158 159
l 7 8
l 189 188
l 18 19
l 128 129
l 3 4
l 4 1
l 19 14
l 83 73
l 99 54
l 179 180
l 120 161
l 135 173
l 49 50
l 27 26
l 73 49
l 107 112
l 166 167
l 101 53
l 69 70
l 61 51
l 30 31
l 186 67
l 142 140
l 65 66
l 164 124
l 178 179
l 62 63
l 124 125
l 176 98
l 169 163
l 94 97
l 136 137
l 8 11
l 87 62
l 111 139
l 152 153
l 14 15
l 85 99
l 95 60
l 107 108
l 132 133
l 9 5
l 104 37
l 102 34
l 38 106
l 6 7
l 168 155
l 58 59
l 24 20
l 70 81
l 52 78
l 171 172
l 160 109
l 84 85
l 162 136
l 185 175
l 17 18
l 175 105
l 119 120
l 138 130
l 181 177
l 42 52
l 55 64
l 191 188
l 181 190
l 190 191
l 77 93
l 27 90
l 196 195
l 198 197
l 199 204
l 195 194
l 207 206
l 205 192
l 193 207
l 192 196
l 197 201
l 200 199
l 203 202
l 202 193
l 204 203
l 194 198
l 201 200
l 209 205
l 210 208
l 208 209
l 184 210
l 2 206
o Cube
v 1.000000 -1.000000 -1.000000
v 1.000000 -1.000000 1.000000
v -1.000000 -1.000000 1.000000
v -1.000000 -1.000000 -1.000000
v 1.000000 1.000000 -0.999999
v 0.999999 1.000000 1.000001
v -1.000000 1.000000 1.000000
v -1.000000 1.000000 -1.000000
vn 0.000000 -1.000000 0.000000
vn 0.000000 1.000000 0.000000
vn 1.000000 0.000000 0.000000
vn -0.000000 -0.000000 1.000000
vn -1.000000 -0.000000 -0.000000
vn 0.000000 0.000000 -1.000000
usemtl Material
s off
f 211//1 212//1 213//1 214//1
f 215//2 218//2 217//2 216//2
f 211//3 215//3 216//3 212//3
f 212//4 216//4 217//4 213//4
f 213//5 217//5 218//5 214//5
f 215//6 211//6 214//6 218//6
